<svg xmlns="http://www.w3.org/2000/svg" width="15.001" height="15.009" viewBox="0 0 15.001 15.009">
  <path id="linux_icon_lan" d="M1689.526,633.992c-7,.561-5.147,7.961-5.251,10.44a17.083,17.083,0,0,1-1.136,4.536h1.893a11.634,11.634,0,0,0,.4-2.025c.118.079.239.157.357.229a3.6,3.6,0,0,1,.589.468,2.912,2.912,0,0,0,1.961.936h.2a4,4,0,0,0,2.258-.8,3.341,3.341,0,0,1,.714-.389,3.9,3.9,0,0,0,1.554-.9c.064-.064.121-.125.175-.189.225.818.529,1.739.868,2.661h4.036c-.972-1.5-1.972-2.968-1.95-4.843.046-3.693.429-10.7-6.665-10.129Zm-4.575,8.126c-.068-1.211.511-2.225,1.293-2.272s1.475.907,1.54,2.1v.193a3.254,3.254,0,0,0-.672.257.07.07,0,0,1,0-.028c-.068-.682-.432-1.2-.818-1.157s-.654.646-.571,1.325a1.888,1.888,0,0,0,.236.768c-.029.025-.114.086-.211.157l-.268.2a2.827,2.827,0,0,1-.529-1.543Zm6.3,4.472a4.224,4.224,0,0,0-.911.482,3.189,3.189,0,0,1-1.786.664h-.15a2.065,2.065,0,0,1-1.429-.714,4.519,4.519,0,0,0-.732-.572c-.625-.357-1.014-.793-1.039-1.175a.55.55,0,0,1,.25-.493l.825-.611c.193-.139.25-.182.3-.221l.1-.1a2.682,2.682,0,0,1,1.85-.957,3.472,3.472,0,0,1,1.85.643,3.971,3.971,0,0,0,.932.429c.236.082.5.171.865.329.357.139.732.389.714.807-.021.65-.857,1.243-1.632,1.486Zm1.9-4.643a2.985,2.985,0,0,1-.443,1.664,2.052,2.052,0,0,0-.2-.093c-.325-.139-.582-.232-.8-.311a1.916,1.916,0,0,0,.2-.836c0-.768-.357-1.393-.865-1.393s-.907.618-.925,1.386v.075a4.426,4.426,0,0,0-.9-.307.671.671,0,0,1,0-.086,2.322,2.322,0,0,1,1.914-2.586,2.284,2.284,0,0,1,2.022,2.479Zm-1.69,2.818a6.05,6.05,0,0,1-3.072.5,4.455,4.455,0,0,1-1.932-.521.429.429,0,1,0-.475.714,5.11,5.11,0,0,0,2.346.654q.243.021.525.021a6.816,6.816,0,0,0,2.968-.593.429.429,0,1,0-.357-.775Zm0,0" transform="translate(-1683.139 -633.96)" fill="#2d73ff"/>
</svg>
