<svg xmlns="http://www.w3.org/2000/svg" xmlns:xlink="http://www.w3.org/1999/xlink" width="14" height="17.211" viewBox="0 0 14 17.211">
  <defs>
    <clipPath id="clip-path">
      <rect id="矩形_111" data-name="矩形 111" width="14" height="17.211" fill="#2d73ff"/>
    </clipPath>
  </defs>
  <g id="home_icon_mac" transform="translate(-413 -53)">
    <g id="组_31" data-name="组 31" transform="translate(413 53)">
      <g id="组_30" data-name="组 30" transform="translate(0 0)" clip-path="url(#clip-path)">
        <path id="路径_32" data-name="路径 32" d="M426.984,66.011a9.352,9.352,0,0,1-1.187,2.451c-.717,1.043-1.459,2.1-2.63,2.114-1.152.02-1.52-.687-2.835-.687s-1.726.669-2.815.708c-1.125.046-1.991-1.14-2.711-2.178-1.471-2.127-2.6-6.027-1.085-8.641a4.2,4.2,0,0,1,3.554-2.162c1.1-.021,2.152.747,2.821.747.688,0,1.957-.929,3.3-.79a4.043,4.043,0,0,1,3.139,1.7,3.934,3.934,0,0,0-1.856,3.272,3.776,3.776,0,0,0,2.309,3.468m-4.468-9.834a3.836,3.836,0,0,0,.9-2.754,3.85,3.85,0,0,0-2.536,1.3,3.579,3.579,0,0,0-.9,2.66,3.282,3.282,0,0,0,2.543-1.211" transform="translate(-413 -53.412)" fill="#2d73ff"/>
      </g>
    </g>
  </g>
</svg>
