<svg xmlns="http://www.w3.org/2000/svg" xmlns:xlink="http://www.w3.org/1999/xlink" width="18" height="22.128" viewBox="0 0 18 22.128">
  <defs>
    <clipPath id="clip-path">
      <rect id="矩形_111" data-name="矩形 111" width="18" height="22.128" fill="#fff"/>
    </clipPath>
  </defs>
  <g id="win_icon_macB" transform="translate(-413 -53)">
    <g id="组_31" data-name="组 31" transform="translate(413 53)">
      <g id="组_30" data-name="组 30" transform="translate(0 0)" clip-path="url(#clip-path)">
        <path id="路径_32" data-name="路径 32" d="M430.98,69.608a12.027,12.027,0,0,1-1.527,3.152c-.922,1.342-1.876,2.694-3.381,2.718-1.481.026-1.955-.884-3.646-.884s-2.219.86-3.619.91c-1.447.059-2.56-1.465-3.486-2.8-1.891-2.735-3.348-7.749-1.395-11.11a5.4,5.4,0,0,1,4.57-2.78c1.418-.027,2.766.96,3.627.96.885,0,2.516-1.195,4.238-1.016a5.2,5.2,0,0,1,4.035,2.184,5.058,5.058,0,0,0-2.386,4.207,4.855,4.855,0,0,0,2.969,4.459m-5.745-12.644a4.932,4.932,0,0,0,1.152-3.541,4.951,4.951,0,0,0-3.261,1.677,4.6,4.6,0,0,0-1.16,3.421,4.22,4.22,0,0,0,3.269-1.557" transform="translate(-413 -53.409)" fill="#fff"/>
      </g>
    </g>
  </g>
</svg>
