<svg xmlns="http://www.w3.org/2000/svg" xmlns:xlink="http://www.w3.org/1999/xlink" width="20" height="20" viewBox="0 0 20 20">
  <defs>
    <clipPath id="clip-path">
      <rect id="矩形_4873" data-name="矩形 4873" width="15.287" height="15.935" fill="#fff"/>
    </clipPath>
  </defs>
  <g id="news_icon_zixun" transform="translate(-915 -573)">
    <rect id="矩形_7700" data-name="矩形 7700" width="20" height="20" transform="translate(915 573)" fill="#ffb1b1" opacity="0"/>
    <g id="组_2221" data-name="组 2221" transform="translate(98.516 471.611)">
      <g id="组_2220" data-name="组 2220" transform="translate(818.84 103.42)">
        <g id="组_2219" data-name="组 2219" transform="translate(0 0)" clip-path="url(#clip-path)">
          <path id="路径_4356" data-name="路径 4356" d="M878.291,177.449h-2.447a.612.612,0,0,0,0,1.223h2.447a.612.612,0,1,0,0-1.223Zm3.058-3.058h-5.5a.612.612,0,0,0,0,1.223h5.5a.612.612,0,1,0,0-1.223Zm0-3.058h-5.5a.612.612,0,0,0,0,1.223h5.5a.612.612,0,1,0,0-1.223Zm0,0" transform="translate(-872.178 -167.654)" fill="#fff"/>
          <path id="路径_4357" data-name="路径 4357" d="M831.632,106.655v-.612a2.454,2.454,0,0,0-2.447-2.447h-7.951a2.454,2.454,0,0,0-2.447,2.447v11.01a2.454,2.454,0,0,0,2.447,2.447h10.4a2.454,2.454,0,0,0,2.446-2.447V109.1a2.454,2.454,0,0,0-2.446-2.447Zm1.223,10.4a1.227,1.227,0,0,1-1.223,1.223h-10.4a1.227,1.227,0,0,1-1.223-1.223v-11.01a1.227,1.227,0,0,1,1.223-1.223h7.951a1.227,1.227,0,0,1,1.223,1.223v9.175a.612.612,0,0,0,1.224,0v-7.34a1.227,1.227,0,0,1,1.223,1.223Zm0,0" transform="translate(-818.79 -103.587)" fill="#fff"/>
        </g>
      </g>
    </g>
  </g>
</svg>
