<svg xmlns="http://www.w3.org/2000/svg" width="20" height="20" viewBox="0 0 20 20">
  <g id="Product_icon_touping" transform="translate(-108.535 -137.428)">
    <rect id="矩形_7691" data-name="矩形 7691" width="20" height="20" transform="translate(108.535 137.428)" fill="#9b9b9b" opacity="0"/>
    <path id="路径_8506" data-name="路径 8506" d="M127.259,143.6a1.374,1.374,0,0,0-1.851-.333l-1.32.922v-.059a3.322,3.322,0,0,0-3.308-3.3h-7.936a3.323,3.323,0,0,0-3.309,3.3v6.591a3.322,3.322,0,0,0,3.309,3.3h7.936A3.318,3.318,0,0,0,124.088,151l1.359.922a1.361,1.361,0,0,0,.768.238,1.317,1.317,0,0,0,1.319-1.314v-6.474A2.107,2.107,0,0,0,127.259,143.6Zm-4.49,7.121h-.02a1.993,1.993,0,0,1-1.989,1.981h-7.916a1.993,1.993,0,0,1-1.989-1.981v-6.591a1.992,1.992,0,0,1,1.989-1.981h7.936a1.993,1.993,0,0,1,1.989,1.981Zm3.387.1-2.087-1.452V145.82l2.087-1.452Z" transform="translate(0 0)" fill="#fff"/>
    <path id="路径_8507" data-name="路径 8507" d="M120.137,150.592a.809.809,0,1,0,.81.807A.809.809,0,0,0,120.137,150.592Z" transform="translate(-6.414 -6.359)" fill="#fff"/>
  </g>
</svg>
