<svg xmlns="http://www.w3.org/2000/svg" width="20" height="20" viewBox="0 0 20 20">
  <g id="Tutorials_icon_jiqiao" transform="translate(-1240 -573)">
    <rect id="矩形_7696" data-name="矩形 7696" width="20" height="20" transform="translate(1240 573)" fill="#ffebeb" opacity="0"/>
    <g id="组_2204" data-name="组 2204" transform="translate(1475.525 -3844.48)">
      <path id="路径_4351" data-name="路径 4351" d="M-216.414,4433.855v-11.589l-.046-.108a3.9,3.9,0,0,0-2.843-1.94v-.016h-.062a8.506,8.506,0,0,0-1.9-.2,5.751,5.751,0,0,0-4.26,1.405,5.765,5.765,0,0,0-4.261-1.405c-3.873,0-4.775,2.069-4.811,2.156l-.046.108v11.509a1.129,1.129,0,0,0,.414.976,1.339,1.339,0,0,0,1.194.079l.062-.024c2.011-.894,5.3-.264,6.287.028a2.568,2.568,0,0,0,.721.123,1.26,1.26,0,0,0,.475-.091,1.538,1.538,0,0,0,.976-.036l.062-.024c2.013-.9,5.294-.264,6.287.026a2.549,2.549,0,0,0,.721.123,1.076,1.076,0,0,0,.779-.284A.929.929,0,0,0-216.414,4433.855Zm-9.711-.106a1.773,1.773,0,0,1-.227-.057,15.472,15.472,0,0,0-3.937-.533,8.015,8.015,0,0,0-3.136.546.24.24,0,0,1-.03.008v-11.176c.2-.314,1.053-1.345,3.666-1.345s3.466,1.029,3.666,1.345Zm3.76-12.487a8.233,8.233,0,0,1,1.093-.07,8.152,8.152,0,0,1,1.176.081v2.425a.238.238,0,0,1-.359.2l-.625-.372a.236.236,0,0,0-.24,0l-.69.4a.237.237,0,0,1-.356-.206Zm4.761,12.487a1.882,1.882,0,0,1-.23-.057,15.441,15.441,0,0,0-3.936-.533,7.99,7.99,0,0,0-3.162.557l0,0v-11.176a2.942,2.942,0,0,1,1.778-1.118v3.668a.237.237,0,0,0,.356.206l1.474-.847a.236.236,0,0,1,.24,0l1.426.849a.238.238,0,0,0,.359-.2v-3.65a2.892,2.892,0,0,1,1.7,1.1Z" transform="translate(0)" fill="#fff"/>
      <path id="路径_4352" data-name="路径 4352" d="M-220.155,4443.762h-3.038a.6.6,0,0,0-.6.6.6.6,0,0,0,.6.6h3.038a.6.6,0,0,0,.6-.6A.6.6,0,0,0-220.155,4443.762Z" transform="translate(-8.281 -18.12)" fill="#fff"/>
      <path id="路径_4353" data-name="路径 4353" d="M-220.155,4454.251h-3.038a.6.6,0,0,0-.6.6.6.6,0,0,0,.6.6h3.038a.6.6,0,0,0,.6-.6A.6.6,0,0,0-220.155,4454.251Z" transform="translate(-8.281 -26.118)" fill="#fff"/>
    </g>
  </g>
</svg>
