<svg xmlns="http://www.w3.org/2000/svg" width="20" height="20" viewBox="0 0 20 20">
  <g id="firmware_icon_gujian" transform="translate(-915 -573)">
    <rect id="矩形_7697" data-name="矩形 7697" width="20" height="20" transform="translate(915 573)" fill="#ffdbdb" opacity="0"/>
    <g id="组_2508" data-name="组 2508" transform="translate(647.121 -3625.059)">
      <g id="组_2506" data-name="组 2506" transform="translate(269.879 4200.371)">
        <path id="路径_4787" data-name="路径 4787" d="M282.128,4211.607h-1.973a.46.46,0,1,1,0-.921h1.973a2.855,2.855,0,0,0,0-5.71h-.553a.46.46,0,0,1-.461-.46,3.223,3.223,0,0,0-6.447,0,.46.46,0,0,1-.461.46h-.553a2.855,2.855,0,0,0,0,5.71h1.972a.46.46,0,1,1,0,.921h-1.972a3.776,3.776,0,0,1,0-7.552h.117a4.145,4.145,0,0,1,8.238,0h.118a3.776,3.776,0,0,1,0,7.552Z" transform="translate(-269.879 -4200.371)" fill="#fff"/>
      </g>
      <g id="组_2507" data-name="组 2507" transform="translate(275.477 4208.323)">
        <path id="路径_4788" data-name="路径 4788" d="M304.966,4248.538a.461.461,0,0,0-.651,0l-1.168,1.167V4244a.461.461,0,0,0-.921,0v5.7l-1.168-1.167a.461.461,0,1,0-.651.651l1.954,1.954h0a.457.457,0,0,0,.069.056c.012.008.024.013.036.02a.471.471,0,0,0,.043.022c.015.006.031.01.047.015s.025.009.039.012a.468.468,0,0,0,.181,0c.013,0,.025-.008.038-.012s.032-.008.048-.015.028-.015.042-.022a.393.393,0,0,0,.037-.021.446.446,0,0,0,.066-.054l0,0,1.954-1.954A.461.461,0,0,0,304.966,4248.538Z" transform="translate(-300.272 -4243.541)" fill="#fff"/>
      </g>
    </g>
  </g>
</svg>
