<svg xmlns="http://www.w3.org/2000/svg" xmlns:xlink="http://www.w3.org/1999/xlink" width="20" height="20" viewBox="0 0 20 20">
  <defs>
    <clipPath id="clip-path">
      <rect id="矩形_4860" data-name="矩形 4860" width="4.42" height="5.766" fill="#fff"/>
    </clipPath>
  </defs>
  <g id="Tutorials_icon_shuaji" transform="translate(-593 -573)">
    <rect id="矩形_7693" data-name="矩形 7693" width="20" height="20" transform="translate(593 573)" fill="#febdbd" opacity="0"/>
    <g id="组_2200" data-name="组 2200" transform="translate(1165.835 -3841.264)">
      <path id="路径_4347" data-name="路径 4347" d="M-556.3,4429.18a3.052,3.052,0,0,1-3.052,3.052h-6.965a3.052,3.052,0,0,1-3.052-3.052v-9.832a3.052,3.052,0,0,1,3.052-3.052h6.965a3.052,3.052,0,0,1,3.052,3.052Zm-1.051-9.833a2,2,0,0,0-2-2h-6.969a2,2,0,0,0-2,2v9.835a2,2,0,0,0,2,2h6.969a2,2,0,0,0,2-2Zm0,0" fill="#fff"/>
      <path id="路径_4348" data-name="路径 4348" d="M-555.36,4440.59h-11.5a.525.525,0,0,1-.526-.525.525.525,0,0,1,.526-.525h11.5a.526.526,0,0,1,.526.525.525.525,0,0,1-.526.525Zm-4.367-9.686h-2.815a.525.525,0,0,1-.526-.525.526.526,0,0,1,.526-.525h2.815a.525.525,0,0,1,.526.525.525.525,0,0,1-.526.525Zm-.921,11.289h-.973a.526.526,0,0,1-.526-.525.526.526,0,0,1,.526-.525h.973a.526.526,0,0,1,.526.525.526.526,0,0,1-.526.525Zm0,0" transform="translate(-1.697 -11.581)" fill="#fff"/>
      <g id="组_2199" data-name="组 2199" transform="translate(-565.044 4420.749)">
        <g id="组_2198" data-name="组 2198" transform="translate(0 0)">
          <g id="组_2197" data-name="组 2197" clip-path="url(#clip-path)">
            <path id="路径_4349" data-name="路径 4349" d="M-537.366,4452.465l2.035-3.052a.262.262,0,0,0-.073-.362.258.258,0,0,0-.145-.043h-1.6v-1.921a.261.261,0,0,0-.261-.261.26.26,0,0,0-.217.116l-2.035,3.052a.261.261,0,0,0,.072.362.263.263,0,0,0,.145.044h1.6v1.921a.261.261,0,0,0,.261.261.259.259,0,0,0,.217-.117Zm0,0" transform="translate(539.705 -4446.827)" fill="#fff"/>
          </g>
        </g>
      </g>
    </g>
  </g>
</svg>
