<svg xmlns="http://www.w3.org/2000/svg" width="20" height="20" viewBox="0 0 20 20">
  <g id="Product_icon_win" transform="translate(-616 93.021)">
    <rect id="矩形_7690" data-name="矩形 7690" width="20" height="20" transform="translate(616 -93.021)" fill="#9b9b9b" opacity="0"/>
    <path id="路径_617" data-name="路径 617" d="M630.8-89.8a2,2,0,0,1,2,2v6.4a2,2,0,0,1-2,2h-9.6a2,2,0,0,1-2-2v-6.4a2,2,0,0,1,.586-1.414A2,2,0,0,1,621.2-89.8h9.6m0-1.2h-9.6a3.2,3.2,0,0,0-3.2,3.2v6.4a3.2,3.2,0,0,0,3.2,3.2h9.6a3.2,3.2,0,0,0,3.2-3.2v-6.4a3.2,3.2,0,0,0-3.2-3.2ZM630-76.2h-7.6a.6.6,0,0,0-.6.6.6.6,0,0,0,.6.6H630a.6.6,0,0,0,.6-.6.6.6,0,0,0-.6-.6Zm0,0" fill="#fff"/>
    <path id="路径_618" data-name="路径 618" d="M662.263,250.332h-13.8a.6.6,0,0,0,0,1.2h13.8a.6.6,0,1,0,0-1.2Zm-6.5,3.7h-1.2v4.3h1.2Zm0,0" transform="translate(-29.167 -333.335)" fill="#fff"/>
  </g>
</svg>
