<svg xmlns="http://www.w3.org/2000/svg" width="20" height="20" viewBox="0 0 20 20"><defs><style>.a{fill:#9b9b9b;opacity:0;}.b,.c{fill:none;}.c{stroke:#fff;stroke-linecap:round;stroke-linejoin:round;stroke-width:1.2px;}.d,.e{stroke:none;}.e{fill:#fff;}</style></defs><g transform="translate(-662.68 109.475)"><rect class="a" width="20" height="20" transform="translate(662.68 -109.475)"/><g class="b" transform="translate(663.68 -107.475)"><path class="d" d="M2.128.621h14a2,2,0,0,1,2,2v11a2,2,0,0,1-2,2h-14a2,2,0,0,1-2-2v-11A2,2,0,0,1,2.128.621Z"/><path class="e" d="M 2.12841796875 1.821093559265137 C 1.687297821044922 1.821093559265137 1.328418731689453 2.179973602294922 1.328418731689453 2.62109375 L 1.328418731689453 13.62109375 C 1.328418731689453 14.06221389770508 1.687297821044922 14.42109394073486 2.12841796875 14.42109394073486 L 16.12841796875 14.42109394073486 C 16.56953811645508 14.42109394073486 16.92841720581055 14.06221389770508 16.92841720581055 13.62109375 L 16.92841720581055 2.62109375 C 16.92841720581055 2.179973602294922 16.56953811645508 1.821093559265137 16.12841796875 1.821093559265137 L 2.12841796875 1.821093559265137 M 2.12841796875 0.62109375 L 16.12841796875 0.62109375 C 17.23298835754395 0.62109375 18.12841796875 1.516523361206055 18.12841796875 2.62109375 L 18.12841796875 13.62109375 C 18.12841796875 14.72566413879395 17.23298835754395 15.62109375 16.12841796875 15.62109375 L 2.12841796875 15.62109375 C 1.023847579956055 15.62109375 0.12841796875 14.72566413879395 0.12841796875 13.62109375 L 0.12841796875 2.62109375 C 0.12841796875 1.516523361206055 1.023847579956055 0.62109375 2.12841796875 0.62109375 Z"/></g><path class="c" d="M669.347-101.678v4.232h4.314" transform="translate(125.278 -502.986) rotate(45)"/><path class="c" d="M0,4.232V0H4.314" transform="translate(677.723 -100.59) rotate(135)"/></g></svg>