<svg xmlns="http://www.w3.org/2000/svg" width="20" height="20" viewBox="0 0 20 20">
  <g id="Product_icon_ios" transform="translate(-662.68 109.475)">
    <rect id="矩形_7692" data-name="矩形 7692" width="20" height="20" transform="translate(662.68 -109.475)" fill="#9b9b9b" opacity="0"/>
    <path id="路径_619" data-name="路径 619" d="M679.163-95.024a3.074,3.074,0,0,1-3.074,3.074h-7.015A3.074,3.074,0,0,1,666-95.024v-9.9A3.074,3.074,0,0,1,669.074-108h7.015a3.074,3.074,0,0,1,3.074,3.074Zm-1.058-9.9a2.014,2.014,0,0,0-2.014-2.014h-7.019a2.014,2.014,0,0,0-2.014,2.014v9.906a2.014,2.014,0,0,0,2.014,2.014h7.019a2.014,2.014,0,0,0,2.014-2.014Zm0,0" fill="#fff"/>
    <path id="路径_620" data-name="路径 620" d="M691.113-8.386H679.534a.529.529,0,0,1-.53-.529.529.529,0,0,1,.53-.529h11.579a.529.529,0,0,1,.53.529.529.529,0,0,1-.53.529Zm-4.4-9.755H683.88a.529.529,0,0,1-.53-.529.529.529,0,0,1,.53-.529h2.835a.529.529,0,0,1,.53.529.529.529,0,0,1-.53.529Zm-.927,11.369h-.98a.529.529,0,0,1-.53-.529.529.529,0,0,1,.53-.529h.98a.529.529,0,0,1,.53.529.529.529,0,0,1-.53.529Zm0,0" transform="translate(-12.713 -86.81)" fill="#fff"/>
  </g>
</svg>
