<svg xmlns="http://www.w3.org/2000/svg" width="20" height="20" viewBox="0 0 20 20">
  <g id="Tutorials_icon_yueyu" transform="translate(-807 -573)">
    <rect id="矩形_7694" data-name="矩形 7694" width="20" height="20" transform="translate(807 573)" fill="#ffe8e8" opacity="0"/>
    <g id="组_2196" data-name="组 2196" transform="translate(-2895.027 -4101.635)">
      <g id="组_2194" data-name="组 2194" transform="translate(3705.029 4676.642)">
        <path id="路径_4345" data-name="路径 4345" d="M3712.122,4692.629a.992.992,0,0,1-.178-.016l-.058-.011a7,7,0,0,1-1.281-.422,12.108,12.108,0,0,1-1.452-.746,13.684,13.684,0,0,1-1.472-1.018,10.221,10.221,0,0,1-1.305-1.226,6.7,6.7,0,0,1-.954-1.374,3.334,3.334,0,0,1-.393-1.542v-6.951a.983.983,0,0,1,.832-.966l.091-.014,5.507-1.629a2.409,2.409,0,0,1,1.16,0l.019.006,5.628,1.632a.981.981,0,0,1,.759.952v6.974a3.437,3.437,0,0,1-.376,1.536,6.7,6.7,0,0,1-.919,1.373,9.759,9.759,0,0,1-1.268,1.229,13.564,13.564,0,0,1-1.425,1.018,11.117,11.117,0,0,1-1.417.749,6.8,6.8,0,0,1-1.243.42l-.093.016A.958.958,0,0,1,3712.122,4692.629Zm-.415-14.97-5.512,1.63a.9.9,0,0,1-.094.02l-.095.014v6.951a2.367,2.367,0,0,0,.284,1.094,5.729,5.729,0,0,0,.817,1.174,9.182,9.182,0,0,0,1.18,1.107,12.746,12.746,0,0,0,1.366.945,11.174,11.174,0,0,0,1.334.686,5.952,5.952,0,0,0,1.087.362l.046.009.061-.011a5.834,5.834,0,0,0,1.05-.359,10.061,10.061,0,0,0,1.292-.684,12.493,12.493,0,0,0,1.322-.945,8.852,8.852,0,0,0,1.141-1.1,5.743,5.743,0,0,0,.786-1.172,2.471,2.471,0,0,0,.275-1.1V4679.3l-.038-.009-5.634-1.634A1.418,1.418,0,0,0,3711.707,4677.659Z" transform="translate(-3705.029 -4676.642)" fill="#fff"/>
      </g>
      <g id="组_2195" data-name="组 2195" transform="translate(3708.407 4681.19)">
        <path id="路径_4346" data-name="路径 4346" d="M3735.173,4718.4a2.394,2.394,0,1,0,1.227-2.08.165.165,0,0,1-.2-.026l-2.353-2.353a.165.165,0,0,0-.234,0l-.547.547a.166.166,0,0,0,0,.235l.019.019a.166.166,0,0,1,0,.235l-.336.336a.166.166,0,0,0,0,.234l.547.547a.165.165,0,0,0,.234,0l.336-.336a.166.166,0,0,1,.235,0h0a.165.165,0,0,1,0,.234l-.141.141a.166.166,0,0,0,0,.234l.547.547a.167.167,0,0,0,.235,0l.141-.141a.166.166,0,0,1,.235,0l.31.31a.166.166,0,0,1,.028.2A2.36,2.36,0,0,0,3735.173,4718.4Zm3.282-.9a1.248,1.248,0,1,1-.9-.382A1.247,1.247,0,0,1,3738.455,4717.5Z" transform="translate(-3732.7 -4713.889)" fill="#fff"/>
      </g>
    </g>
  </g>
</svg>
