<svg xmlns="http://www.w3.org/2000/svg" xmlns:xlink="http://www.w3.org/1999/xlink" width="20" height="20" viewBox="0 0 20 20">
  <defs>
    <clipPath id="clip-path">
      <rect id="矩形_4861" data-name="矩形 4861" width="17.616" height="14.417" fill="#fff"/>
    </clipPath>
  </defs>
  <g id="Tutorials_icon_as" transform="translate(-1025 -573)">
    <rect id="矩形_7695" data-name="矩形 7695" width="20" height="20" transform="translate(1025 573)" fill="#fff1f1" opacity="0"/>
    <g id="组_2203" data-name="组 2203" transform="translate(1432.737 -3846.711)">
      <g id="组_2202" data-name="组 2202" transform="translate(-406.545 4422.502)">
        <g id="组_2201" data-name="组 2201" transform="translate(0 0)" clip-path="url(#clip-path)">
          <path id="路径_4350" data-name="路径 4350" d="M-389.691,4429.509v-2.168a.29.29,0,0,1,.067-.179.866.866,0,0,0,.2-.631c-.066-.618-.748-.866-.971-.958-1.624-.616-4.829-2.027-6.5-2.71l-.015-.006a2.182,2.182,0,0,0-2.315-.01c-.262.105-4.605,1.913-6.285,2.608-.918.38-1.05.944-1.05,1.259a1.443,1.443,0,0,0,1.037,1.272l1.836.744a.274.274,0,0,1,.171.254v5.75a.274.274,0,0,0,.08.194l.09.09a7.46,7.46,0,0,0,5.17,1.889,7.07,7.07,0,0,0,4.92-1.9l.085-.092a.275.275,0,0,0,.072-.186v-5.693c0-.11.259-.21.361-.252l.19-.08a.274.274,0,0,1,.38.259l-.014.58a.271.271,0,0,1-.039.134l-.454.761a.273.273,0,0,0,.047.339l1.484,1.41a.274.274,0,0,0,.368.009l1.64-1.428a.274.274,0,0,0,.039-.371l-.54-.721A.271.271,0,0,1-389.691,4429.509Zm-4.589,4.722a.271.271,0,0,1-.1.214,6.145,6.145,0,0,1-3.794,1.295,6.609,6.609,0,0,1-4.053-1.295.271.271,0,0,1-.106-.217v-4.535a.274.274,0,0,1,.377-.254l2.588,1.054h.013a3.09,3.09,0,0,0,2.572-.065l2.125-.9a.274.274,0,0,1,.381.253Zm3.176-3.643-.025-.023a.275.275,0,0,1-.049-.342l.124-.206a.275.275,0,0,0,.039-.134l.05-2a.263.263,0,0,1,.01-.062.589.589,0,0,0-.18-.625.612.612,0,0,0-.748-.052l-5.376,2.191a1.93,1.93,0,0,1-1.679.052l-6.127-2.493a.709.709,0,0,1-.289-.184,1.1,1.1,0,0,1,.3-.184c1.679-.7,6.206-2.582,6.259-2.594h.013c.787-.315.787-.315,1.378-.013l.039.013c1.6.646,4.634,2,6.316,2.645a.273.273,0,0,1,.175.256v3.065a.276.276,0,0,0,.055.166l.117.154a.274.274,0,0,1-.039.373h0A.274.274,0,0,1-391.1,4430.588Zm.18.167" transform="translate(406.558 -4422.515)" fill="#fff"/>
        </g>
      </g>
    </g>
  </g>
</svg>
