<svg xmlns="http://www.w3.org/2000/svg" width="15.441" height="15.441" viewBox="0 0 15.441 15.441"><defs><style>.a{fill:#2d73ff;}</style></defs><g transform="translate(3535.125 -7138.625)"><g transform="translate(-3535.125 7138.625)"><g transform="translate(9.752)"><path class="a" d="M-3494.113,7144.314a.677.677,0,0,1-.677-.677v-3.251a.407.407,0,0,0-.406-.406h-3.251a.677.677,0,0,1-.677-.677.677.677,0,0,1,.677-.677h3.251a1.763,1.763,0,0,1,1.761,1.761v3.251A.677.677,0,0,1-3494.113,7144.314Z" transform="translate(3499.125 -7138.625)"/></g><path class="a" d="M-3534.448,7144.314a.677.677,0,0,1-.677-.677v-3.251a1.763,1.763,0,0,1,1.761-1.761h3.251a.677.677,0,0,1,.677.677.677.677,0,0,1-.677.677h-3.251a.407.407,0,0,0-.406.406v3.251A.677.677,0,0,1-3534.448,7144.314Z" transform="translate(3535.125 -7138.625)"/><g transform="translate(9.752 9.752)"><path class="a" d="M-3495.2,7180.314h-3.251a.677.677,0,0,1-.677-.677.677.677,0,0,1,.677-.677h3.251a.407.407,0,0,0,.406-.406V7175.3a.677.677,0,0,1,.677-.677.677.677,0,0,1,.677.677v3.251A1.763,1.763,0,0,1-3495.2,7180.314Z" transform="translate(3499.125 -7174.625)"/></g><g transform="translate(0 9.752)"><path class="a" d="M-3530.113,7180.314h-3.251a1.763,1.763,0,0,1-1.761-1.761V7175.3a.677.677,0,0,1,.677-.677.677.677,0,0,1,.677.677v3.251a.407.407,0,0,0,.406.406h3.251a.677.677,0,0,1,.677.677A.677.677,0,0,1-3530.113,7180.314Z" transform="translate(3535.125 -7174.625)"/></g></g><g transform="translate(-3533.771 7145.668)"><path class="a" d="M-3518.07,7165.979h-11.378a.678.678,0,0,1-.677-.678.677.677,0,0,1,.677-.677h11.378a.677.677,0,0,1,.677.677A.678.678,0,0,1-3518.07,7165.979Z" transform="translate(3530.125 -7164.625)"/></g></g></svg>